<svg version="1.1" id="Layer_1" xmlns="http://www.w3.org/2000/svg" xmlns:xlink="http://www.w3.org/1999/xlink" x="0px" y="0px"
	 width="100%" viewBox="0 0 1640 924" enable-background="new 0 0 1640 924" xml:space="preserve">
<path fill="#000000" opacity="1.000000" stroke="none" 
	d="
M1067.000000,925.000000 
	C711.333313,925.000000 356.166656,925.000000 1.000000,925.000000 
	C1.000000,617.000000 1.000000,309.000000 1.000000,1.000000 
	C547.666687,1.000000 1094.333374,1.000000 1641.000000,1.000000 
	C1641.000000,309.000000 1641.000000,617.000000 1641.000000,925.000000 
	C1449.833374,925.000000 1258.666626,925.000000 1067.000000,925.000000 
M1413.938721,595.971497 
	C1414.292480,594.846619 1414.938354,593.725220 1414.951660,592.596375 
	C1415.028442,586.120911 1414.954956,579.643616 1415.557861,572.761963 
	C1417.099121,572.421387 1418.653076,572.128479 1420.177002,571.723022 
	C1421.144043,571.465759 1422.399292,571.312927 1422.947754,570.641418 
	C1424.758667,568.424500 1426.360840,566.020142 1423.920410,563.153076 
	C1421.554810,560.374023 1418.773193,560.327209 1415.705200,561.756165 
	C1414.474487,562.329468 1413.216431,563.296387 1411.972168,563.293945 
	C1409.359253,563.288879 1406.747070,562.760742 1404.607544,562.504028 
	C1405.292480,574.942627 1405.913818,586.225891 1406.605225,598.781189 
	C1409.022583,597.756165 1411.049194,596.896851 1413.938721,595.971497 
M1149.702148,597.886841 
	C1156.277588,598.178650 1156.853638,597.643494 1156.866333,591.160767 
	C1156.876465,586.039673 1156.600220,580.896118 1157.023926,575.810242 
	C1157.162964,574.142883 1158.770020,571.991028 1160.296509,571.198608 
	C1162.236572,570.191406 1164.777344,570.341675 1166.953979,570.875183 
	C1167.007202,576.219543 1166.814575,581.580505 1167.173218,586.904297 
	C1167.674561,594.348389 1176.196533,600.024292 1183.554199,598.195557 
	C1186.275146,597.519287 1189.818481,595.782898 1191.626709,596.845154 
	C1194.219849,598.368408 1194.724731,597.665833 1196.693359,596.208496 
	C1199.863159,593.862000 1197.406006,591.336426 1197.984253,588.050903 
	C1197.989502,576.583313 1198.152344,565.111755 1197.861938,553.651611 
	C1197.806519,551.457214 1195.966309,549.307983 1194.130859,546.986023 
	C1187.728394,547.128967 1187.057617,547.792419 1187.031250,554.038330 
	C1187.021729,556.269958 1187.029663,558.501709 1187.029663,560.991699 
	C1184.180542,560.991699 1182.012085,560.746277 1179.928345,561.061707 
	C1177.899536,561.368713 1175.830688,562.003845 1174.010742,562.942993 
	C1171.849609,564.058167 1169.935547,565.651855 1168.078491,566.277222 
	C1164.843628,560.385010 1163.088257,559.820312 1157.088379,562.483459 
	C1156.110596,562.917419 1154.868530,562.990967 1153.777588,562.896606 
	C1147.096802,562.318604 1147.096802,562.286499 1147.086060,569.030090 
	C1147.084473,570.021606 1147.125610,571.013245 1147.014771,572.937805 
	C1147.009888,579.723755 1146.895752,586.512756 1147.083862,593.293335 
	C1147.125977,594.815125 1148.224731,596.307556 1149.702148,597.886841 
M1360.978149,497.889221 
	C1359.961914,501.878418 1357.407715,503.568634 1353.320435,503.159729 
	C1349.216431,502.749084 1345.076172,502.006073 1340.996582,502.228973 
	C1336.402588,502.479980 1331.085205,499.930634 1327.354126,504.836945 
	C1327.933350,505.842651 1328.888306,506.742279 1328.909790,507.663696 
	C1329.030396,512.820801 1329.712769,518.156738 1328.627075,523.084290 
	C1327.875610,526.495178 1329.692017,527.919983 1331.325439,528.356873 
	C1336.203735,529.661743 1341.281128,530.322327 1346.320679,530.861816 
	C1347.718872,531.011414 1349.240234,529.440125 1350.732056,529.384644 
	C1357.742920,529.123779 1364.600708,531.468750 1371.836426,529.192139 
	C1379.479980,526.787231 1384.878418,522.096130 1388.729004,515.632263 
	C1390.948730,511.906189 1391.950928,507.410553 1393.236572,503.180939 
	C1396.607300,492.093018 1399.853638,480.966980 1403.100952,469.841980 
	C1403.859375,467.243988 1404.275879,464.541443 1405.108521,461.970825 
	C1407.622559,454.209259 1410.477905,446.552368 1412.796509,438.734955 
	C1415.175781,430.713501 1416.763550,422.450714 1419.293091,414.482574 
	C1421.225220,408.396515 1420.963989,404.620605 1416.008301,401.030396 
	C1406.704590,401.097809 1397.400879,401.165222 1387.406006,401.340149 
	C1385.947021,402.952576 1383.364258,404.478241 1383.231934,406.193085 
	C1382.768433,412.194336 1381.179443,417.734955 1379.362549,423.455811 
	C1376.545288,432.325836 1375.069946,441.623322 1373.068604,450.748962 
	C1372.895996,451.535889 1372.979858,452.398254 1373.051514,453.216217 
	C1373.361328,456.749542 1372.837402,460.067932 1370.073120,462.538666 
	C1367.715820,451.391937 1365.514160,440.209137 1362.942261,429.112122 
	C1361.424194,422.561920 1358.872681,416.341583 1358.533691,409.404999 
	C1358.364624,405.946320 1356.759888,401.248047 1351.804443,401.082825 
	C1342.985229,400.788879 1334.147339,400.898804 1325.320679,401.046844 
	C1321.411133,401.112396 1318.758301,405.445221 1319.992554,409.278351 
	C1322.295044,416.428802 1324.641968,423.565033 1326.929443,430.720306 
	C1328.453247,435.486938 1329.957642,440.261108 1331.378540,445.059174 
	C1333.619141,452.625580 1335.709473,460.237000 1338.000977,467.787598 
	C1339.894287,474.025726 1341.410156,480.479279 1344.199097,486.308197 
	C1345.977905,490.025574 1349.760742,492.790070 1352.742188,495.888275 
	C1352.809937,495.958771 1354.043091,494.907928 1353.862671,495.045990 
	C1356.531982,495.836182 1358.751587,496.493256 1360.978149,497.889221 
M241.962677,471.101959 
	C242.305313,476.053375 240.288574,481.193939 243.116379,485.943909 
	C244.729477,488.653564 246.392059,491.333740 248.002853,494.747314 
	C251.974594,497.973877 255.652496,501.696167 260.006897,504.277161 
	C263.794342,506.522125 268.258087,508.379242 272.580017,508.801788 
	C280.003662,509.527618 287.549561,509.002594 295.044159,509.002655 
	C302.705292,509.002686 310.366455,509.002655 318.027588,509.002655 
	C325.522186,509.002655 333.085693,509.632050 340.491425,508.820679 
	C347.498169,508.052979 355.091705,512.242554 361.532257,506.557770 
	C365.185944,510.139343 367.812317,506.022369 370.171082,504.797943 
	C382.456512,498.420502 389.874725,488.388733 389.954865,474.119690 
	C390.115723,445.474609 389.941559,416.827820 390.026855,388.182068 
	C390.074036,372.337006 382.036316,361.797546 368.471649,354.939972 
	C365.534943,353.455292 362.139404,352.613464 358.860565,352.160278 
	C356.546509,351.840485 354.073334,352.948730 351.669952,352.955353 
	C326.854706,353.023621 302.039246,352.997375 277.223816,352.997070 
	C276.058014,352.997070 274.591522,353.451294 273.776306,352.915741 
	C269.260223,349.949310 265.494415,353.547302 262.036316,354.822998 
	C255.055832,357.398102 248.992508,362.477173 245.741837,369.113800 
	C242.735687,375.251221 240.410065,382.382935 240.248749,389.135651 
	C239.628418,415.102051 239.974030,441.092224 240.080917,467.073029 
	C240.085281,468.134064 241.315094,469.190063 241.962677,471.101959 
M450.440521,419.042419 
	C448.289642,426.776123 446.138763,434.509857 443.987854,442.243591 
	C441.369385,419.870117 437.991943,398.044708 435.502625,376.000214 
	C424.598175,376.000214 414.611542,376.002686 404.624878,375.998627 
	C401.759125,375.997467 400.579956,376.856445 400.379944,380.265320 
	C400.006409,386.630554 400.559662,392.548187 402.391937,398.766693 
	C404.292145,405.215820 404.183899,412.251770 405.025055,419.022217 
	C405.191528,420.362244 405.955658,421.661469 405.959137,422.980804 
	C405.965149,425.255646 405.154877,427.589691 405.449860,429.796967 
	C406.823425,440.075684 408.393097,450.330078 410.060760,460.565796 
	C410.357788,462.388824 411.449890,464.082367 411.997650,465.407135 
	C411.660675,466.807068 410.866089,468.255341 411.077240,469.538086 
	C412.255096,476.692108 413.547882,483.833740 415.073517,490.921021 
	C415.749268,494.060120 422.691956,498.957703 426.010162,498.983429 
	C433.007294,499.037689 440.026276,499.309448 446.991394,498.834198 
	C449.471924,498.664917 451.888763,496.706787 454.219421,495.364960 
	C460.117249,491.969482 459.889069,485.257629 461.826813,479.960571 
	C465.399017,470.195526 467.794098,459.999847 470.928345,449.120392 
	C472.177307,452.067902 473.293610,454.141083 473.952454,456.350708 
	C477.461426,468.119476 480.413239,480.080505 484.536774,491.625336 
	C485.928223,495.520966 489.890503,498.917145 494.998352,498.978882 
	C501.994904,499.063416 509.014252,499.308594 515.979553,498.834442 
	C518.461609,498.665497 520.864014,496.687439 523.216431,495.379852 
	C528.616150,492.378357 527.949829,486.635223 528.876221,481.804260 
	C529.580139,478.132965 528.743835,474.177460 529.356323,470.474701 
	C530.190186,465.433746 532.061279,460.565948 532.919312,455.527100 
	C533.930847,449.587311 534.338562,443.544464 535.001709,437.545624 
	C535.745483,430.817230 536.267395,424.055634 537.277954,417.367706 
	C538.458374,409.555817 540.147949,401.821960 541.427979,394.023254 
	C541.787170,391.834961 541.482788,389.537720 541.482788,387.290466 
	C542.155579,384.679169 543.253418,381.810425 542.771057,379.238007 
	C542.303833,376.746613 539.785400,375.835938 536.859436,375.916840 
	C528.368958,376.151642 519.867004,376.061310 511.371033,375.967682 
	C508.283447,375.933655 506.369385,376.847717 505.923676,380.217621 
	C505.052460,386.804779 503.805145,393.345520 503.056610,399.944427 
	C502.445435,405.332001 502.536072,410.798187 501.950775,416.189941 
	C501.145355,423.610016 500.049011,431.000916 498.911774,438.378815 
	C498.799042,439.110077 497.537354,439.664276 497.519073,439.680267 
	C496.434875,437.120056 495.280792,435.076508 494.697632,432.881287 
	C493.314270,427.673920 492.716583,422.198486 490.815216,417.207001 
	C489.315582,413.270142 486.448822,410.307648 481.074951,410.864990 
	C475.305695,411.463348 469.375793,411.480438 463.608521,410.872894 
	C457.134125,410.190887 453.063721,412.417145 450.440521,419.042419 
M998.030396,470.539001 
	C995.508240,470.319489 992.986084,470.099976 990.762451,469.906464 
	C993.202698,468.930267 995.496094,467.664825 997.948120,467.139374 
	C999.996765,466.700348 1002.823730,466.294495 1004.273132,467.325684 
	C1008.803040,470.548615 1012.792480,469.204010 1016.980957,467.070129 
	C1017.376343,466.868683 1017.857117,466.793884 1018.307251,466.746460 
	C1025.354614,466.004272 1031.134644,462.874786 1036.049072,457.795837 
	C1042.917603,450.697479 1044.833008,442.193085 1044.067017,432.654999 
	C1043.767334,428.922638 1042.563232,424.587189 1047.777832,422.584076 
	C1048.516479,422.300354 1048.889648,420.346680 1048.946045,419.143219 
	C1049.101685,415.819763 1049.013306,412.484161 1048.997070,409.153473 
	C1048.966919,402.952667 1047.024414,401.010712 1040.770874,401.004791 
	C1025.282837,400.990112 1009.741821,400.205048 994.322327,401.233154 
	C980.114807,402.180450 966.394592,405.439606 959.602478,420.722198 
	C955.105774,430.840027 953.957092,440.423553 960.416626,450.215057 
	C962.253845,453.000031 962.892639,456.552887 960.480774,459.869904 
	C955.459778,466.775055 955.607422,473.408051 960.501953,480.224243 
	C962.486267,482.987610 962.739868,486.314240 960.394897,488.812683 
	C957.618042,491.771423 955.862793,494.835175 956.026978,498.948456 
	C956.198608,503.247345 954.845947,508.272644 956.622559,511.705902 
	C960.535828,519.267822 966.264771,526.207458 975.026917,528.198181 
	C978.886047,529.074829 983.077759,534.011963 987.472839,529.082764 
	C990.950256,533.333862 1009.656799,533.263062 1013.389771,529.641052 
	C1015.516785,530.049866 1017.366272,531.026306 1018.702148,530.552917 
	C1024.036865,528.662720 1029.622925,528.098877 1034.632202,524.418030 
	C1042.380005,518.724976 1046.959839,512.078491 1045.036499,504.211456 
	C1044.585815,502.367554 1043.665161,499.726654 1044.502441,498.639038 
	C1047.963623,494.142456 1043.997559,491.672211 1042.253174,488.742218 
	C1038.658203,482.703766 1032.549561,479.952026 1026.237427,478.079956 
	C1017.166443,475.389587 1007.914734,473.308777 998.030396,470.539001 
M856.024963,428.144928 
	C855.679077,429.375244 855.348694,430.610168 854.984741,431.835114 
	C853.395447,437.183563 852.454102,442.437897 852.259521,448.209900 
	C852.013428,455.511902 848.448730,462.667603 846.608337,469.960327 
	C844.875305,476.827759 843.342773,483.758087 842.060852,490.723114 
	C841.070068,496.106567 843.719482,498.997437 849.042603,498.999268 
	C857.034607,499.002045 865.033691,499.183075 873.013550,498.872223 
	C875.027344,498.793793 878.302795,497.543060 878.735107,496.135742 
	C880.802795,489.405304 882.092102,482.435730 883.862671,474.651733 
	C890.778503,474.651733 899.130188,474.651733 908.478149,474.651733 
	C909.257812,479.568451 910.419067,485.035980 910.917908,490.563324 
	C911.411499,496.031372 913.974182,498.950714 919.507263,498.986420 
	C927.665405,499.039093 935.824219,499.021179 943.982605,498.992798 
	C949.712463,498.972839 952.056763,495.414368 950.410522,489.826721 
	C949.055969,485.228882 947.997925,480.535614 946.998474,475.844147 
	C946.428040,473.166534 946.451660,470.358704 945.838257,467.694580 
	C943.644714,458.166901 941.307251,448.672180 938.991943,439.172852 
	C938.387329,436.692169 937.560181,434.262787 937.021301,431.769623 
	C936.108826,427.547943 935.460815,423.267456 934.491211,419.060181 
	C932.999817,412.588715 930.473267,406.227692 929.943848,399.693604 
	C929.208252,390.616394 921.018005,378.023529 912.517273,376.288239 
	C901.829285,374.106415 890.939331,374.172852 880.223755,376.166473 
	C877.213867,376.726440 874.196228,378.776337 871.833191,380.875610 
	C869.174316,383.237732 867.472717,386.648163 864.943787,389.194305 
	C862.619507,391.534393 864.036255,394.668701 862.299927,397.392517 
	C860.383606,400.398621 860.748413,404.825562 859.982422,408.605835 
	C858.714478,414.862976 857.336548,421.097809 856.024963,428.144928 
M735.574402,401.909790 
	C732.498474,403.262939 729.241333,404.313507 726.381348,406.027039 
	C718.414246,410.800293 712.165039,417.017578 709.777466,426.478271 
	C708.461670,431.692078 707.135925,436.279755 708.487000,442.225006 
	C709.828918,448.130157 709.714172,454.929077 707.522949,461.684998 
	C706.021240,466.315338 708.215149,473.122833 710.759949,477.887268 
	C716.394531,488.436340 725.505737,496.236206 737.209961,498.651703 
	C745.697754,500.403412 754.825500,499.263153 763.658752,499.043182 
	C768.078247,498.933136 772.585754,497.141693 776.853882,497.683441 
	C780.864624,498.192505 783.133789,496.783630 784.608276,495.170288 
	C786.654541,495.272919 788.152588,495.814789 789.097717,495.313721 
	C792.956238,493.268066 795.097473,490.278381 795.077637,485.471039 
	C794.933289,450.476166 795.064453,415.480103 794.891235,380.485504 
	C794.875488,377.304932 793.332947,374.131927 792.773438,371.999573 
	C783.178711,371.999573 774.785706,372.156769 766.401794,371.947205 
	C760.293091,371.794464 759.026062,372.777832 759.005432,379.087555 
	C758.982056,386.240204 759.000000,393.393005 759.000000,400.663483 
	C757.319153,401.058990 755.815247,401.718658 754.314148,401.712402 
	C748.265381,401.687317 742.217407,401.456604 735.574402,401.909790 
M1151.844238,495.325928 
	C1152.621460,498.171021 1154.498779,499.109985 1157.395020,499.047333 
	C1164.220459,498.899628 1171.051147,499.002136 1177.879761,498.999359 
	C1183.985229,498.996887 1186.992554,495.912170 1186.996094,489.589111 
	C1187.006714,470.611450 1187.000000,451.633820 1187.000000,432.479553 
	C1188.101074,432.105927 1189.148438,431.796844 1190.161255,431.399536 
	C1198.052979,428.303467 1203.261108,429.583252 1203.074219,440.649536 
	C1202.790161,457.466309 1202.986938,474.291412 1203.007812,491.112946 
	C1203.014282,496.360596 1205.697510,498.996033 1210.914551,498.999115 
	C1217.243408,499.002838 1223.572388,499.000092 1229.901245,498.999939 
	C1236.385742,498.999786 1238.991455,496.327454 1238.995850,489.592804 
	C1239.007812,471.272308 1239.068970,452.951233 1238.912964,434.632050 
	C1238.893433,432.333252 1236.863037,429.925812 1237.173218,427.771606 
	C1238.537476,418.297485 1234.213867,411.670349 1227.506470,405.825684 
	C1223.220337,402.090820 1218.901245,401.424042 1212.994629,401.480957 
	C1203.115967,401.576111 1193.338501,399.657990 1184.633423,406.390900 
	C1182.893799,402.085266 1180.124878,400.686432 1175.941895,400.916321 
	C1169.964111,401.244904 1163.954834,400.982941 1157.959106,401.005493 
	C1153.306763,401.023010 1151.031372,403.080200 1151.032104,407.808563 
	C1151.036865,436.781158 1151.137451,465.753784 1151.844238,495.325928 
M1062.329956,485.031677 
	C1063.336304,486.283264 1064.193237,487.701569 1065.372925,488.759979 
	C1074.477173,496.928284 1085.363647,500.202972 1097.391479,499.962097 
	C1102.978027,499.850220 1108.636230,499.806244 1114.118774,498.882263 
	C1121.240479,497.682068 1128.242188,495.720581 1135.228882,493.838867 
	C1136.036865,493.621246 1136.892578,491.836182 1136.920898,490.756744 
	C1137.082153,484.597565 1137.139282,478.425873 1136.870483,472.274200 
	C1136.821899,471.161255 1135.212158,469.362885 1134.120728,469.194855 
	C1131.213257,468.747253 1128.192383,468.920441 1125.222290,469.018097 
	C1116.639526,469.300293 1108.062134,469.796356 1099.477783,469.955322 
	C1093.535889,470.065369 1090.118408,467.259308 1088.132324,460.999939 
	C1089.864502,460.999939 1091.477295,460.999939 1093.089966,460.999939 
	C1106.582764,460.999939 1120.075928,461.047516 1133.568359,460.979645 
	C1140.218994,460.946198 1142.167725,459.077698 1141.936401,452.533478 
	C1141.766357,447.727448 1140.490234,442.927124 1140.628662,438.150970 
	C1140.878906,429.512909 1137.616943,422.032135 1132.697021,415.644592 
	C1126.337769,407.388245 1118.144897,401.173706 1106.902466,401.015076 
	C1100.937134,400.930908 1094.959961,400.783203 1089.005127,401.047699 
	C1078.339355,401.521515 1070.544678,406.811401 1063.395386,414.736633 
	C1055.426880,423.570099 1053.251343,433.350922 1053.953979,444.543152 
	C1054.235229,449.023102 1054.277222,453.556091 1053.943481,458.028839 
	C1053.201050,467.984100 1055.874634,476.870697 1062.329956,485.031677 
M602.157532,401.001404 
	C594.374207,401.000946 586.590759,400.976746 578.807495,401.005829 
	C568.466431,401.044495 552.614746,413.282410 548.974915,424.065308 
	C543.833679,439.296600 543.451111,454.760162 547.115295,470.325043 
	C549.688660,481.256195 556.090698,489.170959 565.995239,494.688416 
	C571.235413,497.607574 576.661438,499.077362 582.415894,499.703735 
	C594.335022,501.001038 605.987610,499.683746 616.187744,493.088440 
	C625.607605,486.997650 630.441895,477.396973 632.874756,466.668182 
	C633.285156,464.858429 632.258179,462.722717 632.003967,461.331909 
	C632.740906,459.514191 634.084290,457.856842 633.874756,456.427155 
	C633.023132,450.616058 636.536438,444.062500 631.597046,438.965027 
	C632.036255,437.762756 633.137695,436.318542 632.897644,435.149841 
	C631.339111,427.561768 629.102844,420.295807 623.808838,414.199615 
	C618.136719,407.668091 610.918579,403.879761 602.157532,401.001404 
M1307.787109,498.990906 
	C1308.713623,498.635437 1309.844604,498.505615 1310.530273,497.884338 
	C1313.098877,495.556641 1316.981201,493.421753 1317.673950,490.561279 
	C1318.855347,485.684326 1318.358398,480.276062 1317.820190,475.169617 
	C1317.608276,473.158478 1315.548706,469.870941 1314.064331,469.716187 
	C1307.108154,468.990814 1300.048096,468.850220 1293.047852,469.111359 
	C1288.689087,469.273956 1286.470459,466.889008 1285.343872,463.632690 
	C1282.297119,454.825531 1281.769653,445.706512 1285.246704,436.969391 
	C1286.241333,434.469940 1289.527588,431.697357 1292.119751,431.283234 
	C1296.536011,430.577728 1301.239868,431.582031 1305.813843,431.973541 
	C1312.959961,432.585175 1318.960938,431.643311 1318.063354,422.298492 
	C1317.682983,418.337769 1317.875488,414.305115 1318.033081,410.314087 
	C1318.208374,405.875946 1314.922485,403.812653 1311.924438,402.207245 
	C1309.657471,400.993286 1306.559814,401.161346 1303.817749,401.043640 
	C1299.846924,400.873199 1295.862305,400.944580 1291.885376,401.013977 
	C1286.602661,401.106140 1280.964966,400.158936 1276.114502,401.681061 
	C1266.128662,404.814606 1258.183350,411.434448 1253.710083,421.034576 
	C1251.543701,425.684021 1250.416016,431.158600 1250.225342,436.311676 
	C1249.896606,445.185516 1251.752075,454.234833 1250.667358,462.958923 
	C1249.624023,471.350616 1252.329102,478.491333 1256.485352,484.367096 
	C1264.411621,495.572784 1276.299072,500.532349 1290.185303,499.981598 
	C1295.770386,499.760132 1301.347412,499.333008 1307.787109,498.990906 
M644.000000,476.499023 
	C644.000122,481.825165 643.778320,487.163635 644.074219,492.473297 
	C644.291626,496.375671 645.869080,499.261871 650.740784,499.064728 
	C657.221375,498.802521 663.720642,499.004272 670.211853,498.998871 
	C677.372559,498.992859 679.995728,496.412079 679.997925,489.345490 
	C680.003906,470.385834 680.000000,451.426208 680.000000,431.483032 
	C685.249634,430.978729 690.334900,430.284424 695.440979,430.054504 
	C701.158203,429.797089 702.991760,428.101135 702.998962,422.203125 
	C703.004272,417.875641 703.001587,413.548126 702.999634,409.220642 
	C702.996155,401.365479 702.461792,400.633240 694.538513,401.080170 
	C689.288940,401.376282 683.255859,399.191711 679.230591,404.872162 
	C679.132996,405.009949 677.448792,404.458649 677.031799,403.860962 
	C675.028015,400.988647 672.234680,400.862701 669.118469,400.952087 
	C663.297791,401.119019 657.468933,400.999512 651.643433,401.000061 
	C644.949646,401.000702 644.004517,401.925873 644.002563,408.589783 
	C643.995911,430.892975 644.000000,453.196198 644.000000,476.499023 
M1090.017090,556.722961 
	C1089.307861,551.600891 1085.652588,550.500610 1081.517578,551.305481 
	C1079.863525,551.627441 1077.758667,553.715393 1077.303711,555.391479 
	C1075.571411,561.773926 1074.470459,568.325623 1073.026245,574.790039 
	C1072.775024,575.915100 1072.005981,576.924500 1071.780029,577.377808 
	C1069.046997,568.148682 1066.350708,559.043335 1063.700073,550.092224 
	C1061.263428,550.879089 1060.046387,551.738892 1059.188599,551.466797 
	C1055.826782,550.400208 1053.424194,551.802551 1054.194824,554.985779 
	C1055.994507,562.420349 1058.135376,569.772095 1060.119629,577.162292 
	C1061.446411,582.103638 1062.465332,587.151184 1064.164917,591.959290 
	C1065.048096,594.457825 1065.405029,597.949768 1069.528320,598.042297 
	C1072.957764,598.119324 1076.550049,597.879211 1077.824951,594.439697 
	C1079.287109,590.494446 1079.419312,586.075500 1080.561890,581.983093 
	C1081.007690,580.386475 1082.631592,579.118774 1084.121704,577.176086 
	C1084.333618,579.606079 1084.226562,580.990356 1084.605347,582.225586 
	C1085.693604,585.775085 1087.324219,589.190430 1088.095215,592.796692 
	C1088.984741,596.957153 1091.532715,598.015930 1095.242065,598.024780 
	C1099.138306,598.034119 1101.418823,596.090454 1102.135376,592.409729 
	C1102.743164,589.288269 1102.365356,585.804321 1103.611450,583.010559 
	C1106.987061,575.442261 1107.275513,567.018799 1110.050293,559.634888 
	C1111.729248,555.167053 1109.663818,553.277954 1109.451904,550.504272 
	C1107.982666,550.830627 1106.824219,550.982239 1105.741699,551.354553 
	C1104.319458,551.843567 1102.069458,552.187073 1101.722900,553.150024 
	C1100.264648,557.202515 1099.314697,561.446228 1098.309082,565.651123 
	C1097.344116,569.686340 1096.540283,573.760010 1095.665527,577.816833 
	C1095.362305,577.807312 1095.058960,577.797791 1094.755615,577.788269 
	C1093.172974,571.040222 1091.590210,564.292175 1090.017090,556.722961 
M1280.030884,593.023315 
	C1280.455200,596.923157 1282.962158,598.203918 1286.487915,597.998474 
	C1290.387207,597.771240 1289.965088,594.754150 1289.987183,592.176514 
	C1290.051147,584.689636 1290.182373,577.197632 1289.945312,569.718445 
	C1289.893799,568.090698 1288.684692,566.281921 1287.550903,564.944885 
	C1283.203247,559.817627 1277.838013,560.408142 1272.188965,562.421204 
	C1270.714111,562.946777 1268.936035,563.046204 1267.376587,562.811951 
	C1264.902710,562.440369 1262.479614,561.048950 1260.064087,561.117310 
	C1255.434814,561.248474 1250.836304,562.217834 1246.205811,562.619324 
	C1242.349121,562.953735 1242.973511,565.622559 1243.142700,568.027466 
	C1243.718750,576.213928 1244.391968,584.393494 1244.977417,592.579285 
	C1245.168213,595.245911 1244.897827,598.346130 1248.893066,597.958557 
	C1252.212402,597.636414 1254.091064,595.827454 1253.916748,592.079895 
	C1253.692871,587.264893 1254.091675,582.417175 1253.790771,577.610596 
	C1253.535522,573.535217 1254.466797,570.563171 1259.693726,569.116394 
	C1260.446533,571.631287 1261.694824,574.132568 1261.860474,576.703552 
	C1262.202148,582.006226 1261.958740,587.346130 1261.970581,592.670715 
	C1261.978149,596.073120 1263.537231,598.050476 1267.093994,598.095215 
	C1270.924438,598.143433 1272.073120,595.836731 1272.045044,592.453674 
	C1272.011841,588.460510 1272.319824,584.441711 1271.966675,580.479797 
	C1271.532959,575.615662 1272.667847,571.722107 1277.989014,568.553894 
	C1278.713013,570.713623 1279.851196,572.655396 1279.938354,574.643250 
	C1280.192993,580.455811 1280.028564,586.286804 1280.030884,593.023315 
M1342.464600,570.109863 
	C1344.715332,569.433655 1348.307983,567.573975 1348.957275,568.310242 
	C1350.689697,570.274292 1351.673828,573.291748 1352.003418,576.006165 
	C1352.481201,579.942200 1352.076660,583.980408 1352.131470,587.973999 
	C1352.217773,594.261292 1354.880737,598.088501 1360.841553,598.695923 
	C1363.359375,598.952515 1367.326660,597.556824 1368.497437,595.619873 
	C1370.426636,592.428345 1367.849243,590.627686 1364.346191,589.718201 
	C1362.938110,589.352539 1361.335571,586.828247 1361.168701,585.152344 
	C1360.726318,580.709290 1361.018677,576.193054 1361.018677,573.400085 
	C1363.971069,570.198425 1367.236938,568.192505 1367.581055,565.771362 
	C1367.832031,564.004944 1364.232910,561.691467 1361.678955,558.884216 
	C1362.852661,554.531433 1361.490967,553.068726 1354.094482,553.223755 
	C1353.095337,557.790894 1352.393921,562.813660 1346.669800,562.729309 
	C1344.175537,561.915466 1341.681152,561.101562 1339.188599,560.288269 
	C1340.071655,554.987183 1338.926147,552.655518 1335.596436,553.106445 
	C1332.764160,553.489929 1326.664917,565.165344 1328.140747,567.617920 
	C1328.930176,568.929871 1330.243164,569.915771 1331.185181,571.151428 
	C1331.619019,571.720276 1331.943237,572.532776 1331.952271,573.239502 
	C1332.015869,578.231567 1332.286255,583.247314 1331.915649,588.212646 
	C1331.304932,596.400024 1336.899048,600.842224 1344.890869,597.845947 
	C1346.545166,597.225769 1347.613037,595.041565 1348.951050,593.578064 
	C1347.103271,592.177612 1345.228760,590.810669 1343.416016,589.366272 
	C1341.910889,588.167175 1339.415894,587.025940 1339.215698,585.598572 
	C1338.642944,581.518250 1338.854248,577.294189 1339.142212,573.153442 
	C1339.205322,572.246338 1340.865112,571.450256 1342.464600,570.109863 
M1323.868408,580.504089 
	C1323.869141,578.171448 1323.856445,575.838684 1323.873047,573.506165 
	C1323.922607,566.578979 1321.620605,563.681763 1314.771240,561.909607 
	C1307.281372,559.971680 1300.395874,560.181519 1295.281250,567.102112 
	C1299.546753,574.286926 1299.483521,574.180237 1306.878052,569.800537 
	C1308.128418,569.059937 1310.564819,569.085754 1311.769775,569.843750 
	C1313.035156,570.639771 1313.478760,572.741821 1314.281494,574.273132 
	C1309.744141,572.577881 1306.332031,571.652283 1302.928467,575.102600 
	C1302.203613,575.837280 1300.958252,576.064392 1299.944824,576.507385 
	C1294.705200,578.797363 1293.768677,583.116760 1293.916626,588.302612 
	C1294.055298,593.158569 1296.681885,595.988403 1300.684082,597.672241 
	C1305.244751,599.591187 1309.847046,599.321960 1314.394653,597.062134 
	C1315.362305,596.581238 1316.956665,597.523743 1318.260498,597.516174 
	C1319.968384,597.506287 1321.820557,597.542725 1323.324463,596.895203 
	C1324.167969,596.531921 1324.915405,594.810852 1324.875366,593.732544 
	C1324.723511,589.644043 1324.232666,585.568176 1323.868408,580.504089 
M1393.087402,561.965332 
	C1386.609619,559.569519 1374.791260,561.074768 1371.753784,569.218872 
	C1368.978638,576.659851 1368.717651,583.907654 1372.272583,590.903381 
	C1373.667969,593.649414 1376.265503,597.200500 1378.806152,597.657410 
	C1384.278320,598.641541 1390.158691,598.410645 1395.681519,597.509705 
	C1397.722656,597.176758 1399.489624,593.708740 1400.791870,591.345520 
	C1401.107788,590.771973 1399.275757,588.093811 1398.101807,587.825745 
	C1396.099731,587.368408 1393.652100,587.582581 1391.717041,588.342896 
	C1385.163330,590.917786 1384.420410,590.831543 1379.762451,584.009949 
	C1384.837769,584.009949 1389.215942,584.102905 1393.586304,583.958313 
	C1395.072388,583.909241 1396.686768,583.536194 1397.986328,582.835876 
	C1401.884888,580.734802 1401.422119,578.340759 1400.754761,573.849121 
	C1399.924805,568.263245 1397.523926,565.289062 1393.087402,561.965332 
M1142.994995,577.254700 
	C1141.867188,562.559753 1130.551025,557.257874 1118.220581,563.135376 
	C1111.315308,566.426819 1108.082520,578.223572 1110.729004,586.398621 
	C1112.935059,593.213379 1117.206299,597.159790 1124.182373,598.691895 
	C1131.632202,600.328064 1140.399780,595.311523 1142.063110,587.788757 
	C1142.757202,584.649292 1142.673340,581.337891 1142.994995,577.254700 
M1201.509277,589.317444 
	C1201.744385,590.900146 1201.652222,592.626343 1202.272583,594.040100 
	C1204.645630,599.449341 1209.659790,599.071472 1214.286499,598.913086 
	C1219.649170,598.729431 1223.536621,595.321411 1225.823730,591.049072 
	C1228.046143,586.897644 1225.421265,580.542114 1220.950317,577.400269 
	C1217.915283,575.267395 1214.474243,573.712219 1211.133423,571.853577 
	C1212.818237,568.812256 1214.556030,568.065369 1217.544800,570.924866 
	C1220.680298,573.924744 1222.118286,570.033997 1223.617432,568.419250 
	C1224.290771,567.694092 1224.034912,565.001709 1223.217773,564.183533 
	C1219.089233,560.049805 1213.747925,559.834106 1208.809937,561.824219 
	C1199.318237,565.649536 1197.942383,574.470520 1205.777344,580.911499 
	C1208.721313,583.331726 1212.600220,584.614929 1216.052856,586.416443 
	C1216.049927,586.928406 1216.047119,587.440369 1216.044189,587.952393 
	C1214.114502,588.153931 1212.181763,588.543091 1210.255859,588.511719 
	C1207.559570,588.467834 1204.731934,585.936646 1201.509277,589.317444 
z"/>
<path fill="#FDFEFE" opacity="1.000000" stroke="none" 
	d="
M241.973953,470.248413 
	C241.315094,469.190063 240.085281,468.134064 240.080917,467.073029 
	C239.974030,441.092224 239.628418,415.102051 240.248749,389.135651 
	C240.410065,382.382935 242.735687,375.251221 245.741837,369.113800 
	C248.992508,362.477173 255.055832,357.398102 262.036316,354.822998 
	C265.494415,353.547302 269.260223,349.949310 273.776306,352.915741 
	C274.591522,353.451294 276.058014,352.997070 277.223816,352.997070 
	C302.039246,352.997375 326.854706,353.023621 351.669952,352.955353 
	C354.073334,352.948730 356.546509,351.840485 358.860565,352.160278 
	C362.139404,352.613464 365.534943,353.455292 368.471649,354.939972 
	C382.036316,361.797546 390.074036,372.337006 390.026855,388.182068 
	C389.941559,416.827820 390.115723,445.474609 389.954865,474.119690 
	C389.874725,488.388733 382.456512,498.420502 370.171082,504.797943 
	C367.812317,506.022369 365.185944,510.139343 361.532257,506.557770 
	C355.091705,512.242554 347.498169,508.052979 340.491425,508.820679 
	C333.085693,509.632050 325.522186,509.002655 318.027588,509.002655 
	C310.366455,509.002655 302.705292,509.002686 295.044159,509.002655 
	C287.549561,509.002594 280.003662,509.527618 272.580017,508.801788 
	C268.258087,508.379242 263.794342,506.522125 260.006897,504.277161 
	C255.652496,501.696167 251.974594,497.973877 248.444916,494.343018 
	C269.717499,492.626740 277.373230,486.483887 283.238953,466.363098 
	C284.727142,461.258148 286.214294,456.152802 287.672699,451.039276 
	C294.921051,425.625183 302.178101,400.213531 309.386475,374.788086 
	C310.884369,369.504669 310.401367,368.893555 305.086639,368.861725 
	C297.932343,368.818848 290.763000,369.127258 283.628387,368.749878 
	C279.136414,368.512238 277.608093,370.283752 276.755890,374.462677 
	C270.613251,404.583862 263.954254,434.585724 254.825302,463.981689 
	C253.578522,467.996490 251.264099,470.234497 246.964386,470.196930 
	C245.301178,470.182404 243.637451,470.229431 241.973953,470.248413 
M305.452393,446.056793 
	C313.702057,459.126099 321.893127,472.233185 330.269043,485.221069 
	C331.432281,487.024811 333.459747,489.459930 335.168152,489.526550 
	C344.792145,489.902069 354.441132,489.659637 364.080750,489.554993 
	C364.621887,489.549103 365.155975,488.895538 366.099121,488.277527 
	C365.199036,486.630493 364.409210,485.035553 363.486969,483.521240 
	C355.966492,471.173035 347.291351,459.368042 341.206726,446.351105 
	C335.323639,433.765350 326.795807,430.380768 314.142151,432.365143 
	C309.216888,433.137482 304.069183,432.491364 299.022827,432.491364 
	C298.783478,433.052856 298.544128,433.614349 298.304779,434.175842 
	C300.556610,437.931885 302.808472,441.687958 305.452393,446.056793 
M364.909729,377.261688 
	C366.911713,373.703064 364.381470,373.822021 362.069885,373.759979 
	C353.923309,373.541321 345.764648,373.517639 337.635254,373.018524 
	C333.611572,372.771484 331.310089,374.161560 329.260712,377.604462 
	C319.985565,393.186340 310.429382,408.600739 301.025391,424.106384 
	C300.043152,425.725922 299.397949,427.549927 298.491364,429.505615 
	C299.829651,430.035309 300.573486,430.580780 301.322418,430.587921 
	C310.310822,430.673584 319.308350,430.888763 328.282166,430.532806 
	C330.117798,430.460022 332.459381,428.549866 333.561249,426.838562 
	C344.010284,410.610626 354.241699,394.242554 364.909729,377.261688 
z"/>
<path fill="#FFFFFF" opacity="1.000000" stroke="none" 
	d="
M450.699463,418.756836 
	C453.063721,412.417145 457.134125,410.190887 463.608521,410.872894 
	C469.375793,411.480438 475.305695,411.463348 481.074951,410.864990 
	C486.448822,410.307648 489.315582,413.270142 490.815216,417.207001 
	C492.716583,422.198486 493.314270,427.673920 494.697632,432.881287 
	C495.280792,435.076508 496.434875,437.120056 497.519073,439.680267 
	C497.537354,439.664276 498.799042,439.110077 498.911774,438.378815 
	C500.049011,431.000916 501.145355,423.610016 501.950775,416.189941 
	C502.536072,410.798187 502.445435,405.332001 503.056610,399.944427 
	C503.805145,393.345520 505.052460,386.804779 505.923676,380.217621 
	C506.369385,376.847717 508.283447,375.933655 511.371033,375.967682 
	C519.867004,376.061310 528.368958,376.151642 536.859436,375.916840 
	C539.785400,375.835938 542.303833,376.746613 542.771057,379.238007 
	C543.253418,381.810425 542.155579,384.679169 541.482788,387.290466 
	C541.482788,389.537720 541.787170,391.834961 541.427979,394.023254 
	C540.147949,401.821960 538.458374,409.555817 537.277954,417.367706 
	C536.267395,424.055634 535.745483,430.817230 535.001709,437.545624 
	C534.338562,443.544464 533.930847,449.587311 532.919312,455.527100 
	C532.061279,460.565948 530.190186,465.433746 529.356323,470.474701 
	C528.743835,474.177460 529.580139,478.132965 528.876221,481.804260 
	C527.949829,486.635223 528.616150,492.378357 523.216431,495.379852 
	C520.864014,496.687439 518.461609,498.665497 515.979553,498.834442 
	C509.014252,499.308594 501.994904,499.063416 494.998352,498.978882 
	C489.890503,498.917145 485.928223,495.520966 484.536774,491.625336 
	C480.413239,480.080505 477.461426,468.119476 473.952454,456.350708 
	C473.293610,454.141083 472.177307,452.067902 470.928345,449.120392 
	C467.794098,459.999847 465.399017,470.195526 461.826813,479.960571 
	C459.889069,485.257629 460.117249,491.969482 454.219421,495.364960 
	C451.888763,496.706787 449.471924,498.664917 446.991394,498.834198 
	C440.026276,499.309448 433.007294,499.037689 426.010162,498.983429 
	C422.691956,498.957703 415.749268,494.060120 415.073517,490.921021 
	C413.547882,483.833740 412.255096,476.692108 411.077240,469.538086 
	C410.866089,468.255341 411.660675,466.807068 411.997650,465.407135 
	C411.449890,464.082367 410.357788,462.388824 410.060760,460.565796 
	C408.393097,450.330078 406.823425,440.075684 405.449860,429.796967 
	C405.154877,427.589691 405.965149,425.255646 405.959137,422.980804 
	C405.955658,421.661469 405.191528,420.362244 405.025055,419.022217 
	C404.183899,412.251770 404.292145,405.215820 402.391937,398.766693 
	C400.559662,392.548187 400.006409,386.630554 400.379944,380.265320 
	C400.579956,376.856445 401.759125,375.997467 404.624878,375.998627 
	C414.611542,376.002686 424.598175,376.000214 435.502625,376.000214 
	C437.991943,398.044708 441.369385,419.870117 443.987854,442.243591 
	C446.138763,434.509857 448.289642,426.776123 450.699463,418.756836 
z"/>
<path fill="#FFFFFF" opacity="1.000000" stroke="none" 
	d="
M998.385254,470.753387 
	C1007.914734,473.308777 1017.166443,475.389587 1026.237427,478.079956 
	C1032.549561,479.952026 1038.658203,482.703766 1042.253174,488.742218 
	C1043.997559,491.672211 1047.963623,494.142456 1044.502441,498.639038 
	C1043.665161,499.726654 1044.585815,502.367554 1045.036499,504.211456 
	C1046.959839,512.078491 1042.380005,518.724976 1034.632202,524.418030 
	C1029.622925,528.098877 1024.036865,528.662720 1018.702148,530.552917 
	C1017.366272,531.026306 1015.516785,530.049866 1013.389771,529.641052 
	C1009.656799,533.263062 990.950256,533.333862 987.472839,529.082764 
	C983.077759,534.011963 978.886047,529.074829 975.026917,528.198181 
	C966.264771,526.207458 960.535828,519.267822 956.622559,511.705902 
	C954.845947,508.272644 956.198608,503.247345 956.026978,498.948456 
	C955.862793,494.835175 957.618042,491.771423 960.394897,488.812683 
	C962.739868,486.314240 962.486267,482.987610 960.501953,480.224243 
	C955.607422,473.408051 955.459778,466.775055 960.480774,459.869904 
	C962.892639,456.552887 962.253845,453.000031 960.416626,450.215057 
	C953.957092,440.423553 955.105774,430.840027 959.602478,420.722198 
	C966.394592,405.439606 980.114807,402.180450 994.322327,401.233154 
	C1009.741821,400.205048 1025.282837,400.990112 1040.770874,401.004791 
	C1047.024414,401.010712 1048.966919,402.952667 1048.997070,409.153473 
	C1049.013306,412.484161 1049.101685,415.819763 1048.946045,419.143219 
	C1048.889648,420.346680 1048.516479,422.300354 1047.777832,422.584076 
	C1042.563232,424.587189 1043.767334,428.922638 1044.067017,432.654999 
	C1044.833008,442.193085 1042.917603,450.697479 1036.049072,457.795837 
	C1031.134644,462.874786 1025.354614,466.004272 1018.307251,466.746460 
	C1017.857117,466.793884 1017.376343,466.868683 1016.980957,467.070129 
	C1012.792480,469.204010 1008.803040,470.548615 1004.273132,467.325684 
	C1002.823730,466.294495 999.996765,466.700348 997.948120,467.139374 
	C995.496094,467.664825 993.202698,468.930267 990.762451,469.906464 
	C992.986084,470.099976 995.508240,470.319489 998.385254,470.753387 
M999.571350,428.000000 
	C996.338318,427.755432 993.006775,428.193024 992.111755,431.695679 
	C990.320312,438.706177 992.552612,441.911072 999.844299,442.131744 
	C1002.865234,442.223145 1006.785400,440.889832 1008.806519,438.778198 
	C1011.508728,435.955017 1010.318542,432.096771 1007.632141,429.109863 
	C1007.135376,428.557648 1006.758728,427.897369 1006.831360,428.000000 
	C1004.311157,428.000000 1002.379150,428.000000 999.571350,428.000000 
M1004.532471,497.168762 
	C1003.139282,497.360687 1001.639832,497.977966 1000.373474,497.661865 
	C997.057068,496.834015 993.842285,495.598633 990.575317,494.521820 
	C990.010803,497.280945 989.182617,499.333496 989.315796,501.321625 
	C989.418945,502.859467 990.639282,505.546814 991.512024,505.608307 
	C996.876648,505.986420 1002.299866,505.966827 1007.660278,505.537476 
	C1008.544067,505.466675 1009.564941,502.772949 1009.794983,501.185944 
	C1009.877502,500.616913 1007.814697,499.734772 1006.728516,498.999329 
	C1006.147156,498.605621 1005.560303,498.219910 1004.532471,497.168762 
z"/>
<path fill="#FFFFFF" opacity="1.000000" stroke="none" 
	d="
M856.014954,427.743500 
	C857.336548,421.097809 858.714478,414.862976 859.982422,408.605835 
	C860.748413,404.825562 860.383606,400.398621 862.299927,397.392517 
	C864.036255,394.668701 862.619507,391.534393 864.943787,389.194305 
	C867.472717,386.648163 869.174316,383.237732 871.833191,380.875610 
	C874.196228,378.776337 877.213867,376.726440 880.223755,376.166473 
	C890.939331,374.172852 901.829285,374.106415 912.517273,376.288239 
	C921.018005,378.023529 929.208252,390.616394 929.943848,399.693604 
	C930.473267,406.227692 932.999817,412.588715 934.491211,419.060181 
	C935.460815,423.267456 936.108826,427.547943 937.021301,431.769623 
	C937.560181,434.262787 938.387329,436.692169 938.991943,439.172852 
	C941.307251,448.672180 943.644714,458.166901 945.838257,467.694580 
	C946.451660,470.358704 946.428040,473.166534 946.998474,475.844147 
	C947.997925,480.535614 949.055969,485.228882 950.410522,489.826721 
	C952.056763,495.414368 949.712463,498.972839 943.982605,498.992798 
	C935.824219,499.021179 927.665405,499.039093 919.507263,498.986420 
	C913.974182,498.950714 911.411499,496.031372 910.917908,490.563324 
	C910.419067,485.035980 909.257812,479.568451 908.478149,474.651733 
	C899.130188,474.651733 890.778503,474.651733 883.862671,474.651733 
	C882.092102,482.435730 880.802795,489.405304 878.735107,496.135742 
	C878.302795,497.543060 875.027344,498.793793 873.013550,498.872223 
	C865.033691,499.183075 857.034607,499.002045 849.042603,498.999268 
	C843.719482,498.997437 841.070068,496.106567 842.060852,490.723114 
	C843.342773,483.758087 844.875305,476.827759 846.608337,469.960327 
	C848.448730,462.667603 852.013428,455.511902 852.259521,448.209900 
	C852.454102,442.437897 853.395447,437.183563 854.984741,431.835114 
	C855.348694,430.610168 855.679077,429.375244 856.014954,427.743500 
M891.981445,433.947876 
	C891.251343,436.836914 890.521179,439.725952 889.693787,442.999725 
	C893.359131,442.999725 896.331238,442.975250 899.302734,443.007050 
	C901.941162,443.035309 903.021912,442.216553 902.161133,439.291992 
	C900.808105,434.694855 899.744812,430.004059 898.766296,425.309662 
	C898.429260,423.692841 898.712708,421.946686 898.712708,420.259613 
	C898.589539,420.310547 898.466370,420.361481 898.343201,420.412445 
	C897.709351,417.453125 897.075562,414.493835 896.530090,411.946838 
	C895.579102,413.004364 894.406921,414.307861 893.234741,415.611389 
	C893.674255,415.638123 894.113770,415.664886 894.553345,415.691650 
	C894.471680,417.222992 894.526855,418.776611 894.282227,420.281464 
	C893.586487,424.562592 892.768555,428.823822 891.981445,433.947876 
z"/>
<path fill="#FFFFFF" opacity="1.000000" stroke="none" 
	d="
M735.871826,401.605835 
	C742.217407,401.456604 748.265381,401.687317 754.314148,401.712402 
	C755.815247,401.718658 757.319153,401.058990 759.000000,400.663483 
	C759.000000,393.393005 758.982056,386.240204 759.005432,379.087555 
	C759.026062,372.777832 760.293091,371.794464 766.401794,371.947205 
	C774.785706,372.156769 783.178711,371.999573 792.773438,371.999573 
	C793.332947,374.131927 794.875488,377.304932 794.891235,380.485504 
	C795.064453,415.480103 794.933289,450.476166 795.077637,485.471039 
	C795.097473,490.278381 792.956238,493.268066 789.097717,495.313721 
	C788.152588,495.814789 786.654541,495.272919 784.608276,495.170288 
	C783.133789,496.783630 780.864624,498.192505 776.853882,497.683441 
	C772.585754,497.141693 768.078247,498.933136 763.658752,499.043182 
	C754.825500,499.263153 745.697754,500.403412 737.209961,498.651703 
	C725.505737,496.236206 716.394531,488.436340 710.759949,477.887268 
	C708.215149,473.122833 706.021240,466.315338 707.522949,461.684998 
	C709.714172,454.929077 709.828918,448.130157 708.487000,442.225006 
	C707.135925,436.279755 708.461670,431.692078 709.777466,426.478271 
	C712.165039,417.017578 718.414246,410.800293 726.381348,406.027039 
	C729.241333,404.313507 732.498474,403.262939 735.871826,401.605835 
M759.000000,439.571411 
	C759.000000,438.238098 759.106323,436.894287 758.976257,435.573792 
	C758.756348,433.342377 760.158936,430.370697 756.028564,429.953522 
	C750.057312,429.350403 744.810364,430.957001 744.055420,434.284760 
	C741.840820,444.047699 741.227600,453.719330 743.727783,463.711273 
	C745.013184,468.848724 747.648071,469.946533 751.939331,469.995422 
	C754.207642,470.021271 756.476440,470.000000 759.000000,470.000000 
	C759.000000,459.834747 759.000000,450.194977 759.000000,439.571411 
z"/>
<path fill="#FFFFFF" opacity="1.000000" stroke="none" 
	d="
M1151.525146,495.026154 
	C1151.137451,465.753784 1151.036865,436.781158 1151.032104,407.808563 
	C1151.031372,403.080200 1153.306763,401.023010 1157.959106,401.005493 
	C1163.954834,400.982941 1169.964111,401.244904 1175.941895,400.916321 
	C1180.124878,400.686432 1182.893799,402.085266 1184.633423,406.390900 
	C1193.338501,399.657990 1203.115967,401.576111 1212.994629,401.480957 
	C1218.901245,401.424042 1223.220337,402.090820 1227.506470,405.825684 
	C1234.213867,411.670349 1238.537476,418.297485 1237.173218,427.771606 
	C1236.863037,429.925812 1238.893433,432.333252 1238.912964,434.632050 
	C1239.068970,452.951233 1239.007812,471.272308 1238.995850,489.592804 
	C1238.991455,496.327454 1236.385742,498.999786 1229.901245,498.999939 
	C1223.572388,499.000092 1217.243408,499.002838 1210.914551,498.999115 
	C1205.697510,498.996033 1203.014282,496.360596 1203.007812,491.112946 
	C1202.986938,474.291412 1202.790161,457.466309 1203.074219,440.649536 
	C1203.261108,429.583252 1198.052979,428.303467 1190.161255,431.399536 
	C1189.148438,431.796844 1188.101074,432.105927 1187.000000,432.479553 
	C1187.000000,451.633820 1187.006714,470.611450 1186.996094,489.589111 
	C1186.992554,495.912170 1183.985229,498.996887 1177.879761,498.999359 
	C1171.051147,499.002136 1164.220459,498.899628 1157.395020,499.047333 
	C1154.498779,499.109985 1152.621460,498.171021 1151.525146,495.026154 
z"/>
<path fill="#FFFFFF" opacity="1.000000" stroke="none" 
	d="
M1061.947754,484.992615 
	C1055.874634,476.870697 1053.201050,467.984100 1053.943481,458.028839 
	C1054.277222,453.556091 1054.235229,449.023102 1053.953979,444.543152 
	C1053.251343,433.350922 1055.426880,423.570099 1063.395386,414.736633 
	C1070.544678,406.811401 1078.339355,401.521515 1089.005127,401.047699 
	C1094.959961,400.783203 1100.937134,400.930908 1106.902466,401.015076 
	C1118.144897,401.173706 1126.337769,407.388245 1132.697021,415.644592 
	C1137.616943,422.032135 1140.878906,429.512909 1140.628662,438.150970 
	C1140.490234,442.927124 1141.766357,447.727448 1141.936401,452.533478 
	C1142.167725,459.077698 1140.218994,460.946198 1133.568359,460.979645 
	C1120.075928,461.047516 1106.582764,460.999939 1093.089966,460.999939 
	C1091.477295,460.999939 1089.864502,460.999939 1088.132324,460.999939 
	C1090.118408,467.259308 1093.535889,470.065369 1099.477783,469.955322 
	C1108.062134,469.796356 1116.639526,469.300293 1125.222290,469.018097 
	C1128.192383,468.920441 1131.213257,468.747253 1134.120728,469.194855 
	C1135.212158,469.362885 1136.821899,471.161255 1136.870483,472.274200 
	C1137.139282,478.425873 1137.082153,484.597565 1136.920898,490.756744 
	C1136.892578,491.836182 1136.036865,493.621246 1135.228882,493.838867 
	C1128.242188,495.720581 1121.240479,497.682068 1114.118774,498.882263 
	C1108.636230,499.806244 1102.978027,499.850220 1097.391479,499.962097 
	C1085.363647,500.202972 1074.477173,496.928284 1065.372925,488.759979 
	C1064.193237,487.701569 1063.336304,486.283264 1061.947754,484.992615 
M1103.365112,430.912292 
	C1094.154175,427.743744 1091.347046,429.048737 1088.744507,436.426422 
	C1087.589600,439.699890 1088.791870,439.962921 1091.192383,439.984894 
	C1096.340576,440.032074 1101.489380,439.999390 1108.007568,439.999390 
	C1106.427368,436.654663 1105.196289,434.049316 1103.365112,430.912292 
z"/>
<path fill="#FFFFFF" opacity="1.000000" stroke="none" 
	d="
M602.587891,401.010956 
	C610.918579,403.879761 618.136719,407.668091 623.808838,414.199615 
	C629.102844,420.295807 631.339111,427.561768 632.897644,435.149841 
	C633.137695,436.318542 632.036255,437.762756 631.597046,438.965027 
	C636.536438,444.062500 633.023132,450.616058 633.874756,456.427155 
	C634.084290,457.856842 632.740906,459.514191 632.003967,461.331909 
	C632.258179,462.722717 633.285156,464.858429 632.874756,466.668182 
	C630.441895,477.396973 625.607605,486.997650 616.187744,493.088440 
	C605.987610,499.683746 594.335022,501.001038 582.415894,499.703735 
	C576.661438,499.077362 571.235413,497.607574 565.995239,494.688416 
	C556.090698,489.170959 549.688660,481.256195 547.115295,470.325043 
	C543.451111,454.760162 543.833679,439.296600 548.974915,424.065308 
	C552.614746,413.282410 568.466431,401.044495 578.807495,401.005829 
	C586.590759,400.976746 594.374207,401.000946 602.587891,401.010956 
M581.000000,449.554749 
	C581.333252,453.940094 581.862427,458.321686 581.946960,462.711823 
	C582.039429,467.514252 585.134155,469.266357 589.016418,469.922241 
	C592.677856,470.540863 596.784973,467.380249 596.900879,463.586243 
	C597.179138,454.481567 597.198547,445.353394 596.800293,436.257538 
	C596.725647,434.552734 594.412659,431.824982 592.801086,431.556000 
	C589.975830,431.084564 586.228699,431.250610 584.103210,432.821350 
	C581.895630,434.452789 580.554871,437.942719 579.954712,440.850922 
	C579.457703,443.259491 580.589722,446.004303 581.000000,449.554749 
z"/>
<path fill="#46B9BB" opacity="1.000000" stroke="none" 
	d="
M1370.672974,462.993744 
	C1372.837402,460.067932 1373.361328,456.749542 1373.051514,453.216217 
	C1372.979858,452.398254 1372.895996,451.535889 1373.068604,450.748962 
	C1375.069946,441.623322 1376.545288,432.325836 1379.362549,423.455811 
	C1381.179443,417.734955 1382.768433,412.194336 1383.231934,406.193085 
	C1383.364258,404.478241 1385.947021,402.952576 1387.844971,401.665222 
	C1388.809326,402.312653 1389.332275,402.911499 1389.860352,402.916107 
	C1398.056763,402.987183 1406.254395,403.031708 1414.449463,402.915894 
	C1415.277100,402.904205 1416.089600,401.817505 1416.909180,401.229736 
	C1420.963989,404.620605 1421.225220,408.396515 1419.293091,414.482574 
	C1416.763550,422.450714 1415.175781,430.713501 1412.796509,438.734955 
	C1410.477905,446.552368 1407.622559,454.209259 1405.108521,461.970825 
	C1404.275879,464.541443 1403.859375,467.243988 1403.100952,469.841980 
	C1399.853638,480.966980 1396.607300,492.093018 1393.236572,503.180939 
	C1391.950928,507.410553 1390.948730,511.906189 1388.729004,515.632263 
	C1384.878418,522.096130 1379.479980,526.787231 1371.836426,529.192139 
	C1364.600708,531.468750 1357.742920,529.123779 1350.732056,529.384644 
	C1349.240234,529.440125 1347.718872,531.011414 1346.320679,530.861816 
	C1341.281128,530.322327 1336.203735,529.661743 1331.325439,528.356873 
	C1329.692017,527.919983 1327.875610,526.495178 1328.627075,523.084290 
	C1329.712769,518.156738 1329.030396,512.820801 1328.909790,507.663696 
	C1328.888306,506.742279 1327.933350,505.842651 1327.354126,504.836945 
	C1331.085205,499.930634 1336.402588,502.479980 1340.996582,502.228973 
	C1345.076172,502.006073 1349.216431,502.749084 1353.320435,503.159729 
	C1357.407715,503.568634 1359.961914,501.878418 1361.317871,497.343018 
	C1362.239136,494.992676 1362.830200,493.191528 1363.400269,491.383820 
	C1366.049683,482.984467 1368.740112,474.597260 1371.272339,466.162628 
	C1371.546631,465.248688 1370.895020,464.056732 1370.672974,462.993744 
z"/>
<path fill="#FFFFFF" opacity="1.000000" stroke="none" 
	d="
M1307.357666,498.995209 
	C1301.347412,499.333008 1295.770386,499.760132 1290.185303,499.981598 
	C1276.299072,500.532349 1264.411621,495.572784 1256.485352,484.367096 
	C1252.329102,478.491333 1249.624023,471.350616 1250.667358,462.958923 
	C1251.752075,454.234833 1249.896606,445.185516 1250.225342,436.311676 
	C1250.416016,431.158600 1251.543701,425.684021 1253.710083,421.034576 
	C1258.183350,411.434448 1266.128662,404.814606 1276.114502,401.681061 
	C1280.964966,400.158936 1286.602661,401.106140 1291.885376,401.013977 
	C1295.862305,400.944580 1299.846924,400.873199 1303.817749,401.043640 
	C1306.559814,401.161346 1309.657471,400.993286 1311.924438,402.207245 
	C1314.922485,403.812653 1318.208374,405.875946 1318.033081,410.314087 
	C1317.875488,414.305115 1317.682983,418.337769 1318.063354,422.298492 
	C1318.960938,431.643311 1312.959961,432.585175 1305.813843,431.973541 
	C1301.239868,431.582031 1296.536011,430.577728 1292.119751,431.283234 
	C1289.527588,431.697357 1286.241333,434.469940 1285.246704,436.969391 
	C1281.769653,445.706512 1282.297119,454.825531 1285.343872,463.632690 
	C1286.470459,466.889008 1288.689087,469.273956 1293.047852,469.111359 
	C1300.048096,468.850220 1307.108154,468.990814 1314.064331,469.716187 
	C1315.548706,469.870941 1317.608276,473.158478 1317.820190,475.169617 
	C1318.358398,480.276062 1318.855347,485.684326 1317.673950,490.561279 
	C1316.981201,493.421753 1313.098877,495.556641 1310.530273,497.884338 
	C1309.844604,498.505615 1308.713623,498.635437 1307.357666,498.995209 
z"/>
<path fill="#FFFFFF" opacity="1.000000" stroke="none" 
	d="
M644.000000,475.999207 
	C644.000000,453.196198 643.995911,430.892975 644.002563,408.589783 
	C644.004517,401.925873 644.949646,401.000702 651.643433,401.000061 
	C657.468933,400.999512 663.297791,401.119019 669.118469,400.952087 
	C672.234680,400.862701 675.028015,400.988647 677.031799,403.860962 
	C677.448792,404.458649 679.132996,405.009949 679.230591,404.872162 
	C683.255859,399.191711 689.288940,401.376282 694.538513,401.080170 
	C702.461792,400.633240 702.996155,401.365479 702.999634,409.220642 
	C703.001587,413.548126 703.004272,417.875641 702.998962,422.203125 
	C702.991760,428.101135 701.158203,429.797089 695.440979,430.054504 
	C690.334900,430.284424 685.249634,430.978729 680.000000,431.483032 
	C680.000000,451.426208 680.003906,470.385834 679.997925,489.345490 
	C679.995728,496.412079 677.372559,498.992859 670.211853,498.998871 
	C663.720642,499.004272 657.221375,498.802521 650.740784,499.064728 
	C645.869080,499.261871 644.291626,496.375671 644.074219,492.473297 
	C643.778320,487.163635 644.000122,481.825165 644.000000,475.999207 
z"/>
<path fill="#203A6A" opacity="1.000000" stroke="none" 
	d="
M241.968323,470.675171 
	C243.637451,470.229431 245.301178,470.182404 246.964386,470.196930 
	C251.264099,470.234497 253.578522,467.996490 254.825302,463.981689 
	C263.954254,434.585724 270.613251,404.583862 276.755890,374.462677 
	C277.608093,370.283752 279.136414,368.512238 283.628387,368.749878 
	C290.763000,369.127258 297.932343,368.818848 305.086639,368.861725 
	C310.401367,368.893555 310.884369,369.504669 309.386475,374.788086 
	C302.178101,400.213531 294.921051,425.625183 287.672699,451.039276 
	C286.214294,456.152802 284.727142,461.258148 283.238953,466.363098 
	C277.373230,486.483887 269.717499,492.626740 248.459686,493.982941 
	C246.392059,491.333740 244.729477,488.653564 243.116379,485.943909 
	C240.288574,481.193939 242.305313,476.053375 241.968323,470.675171 
z"/>
<path fill="#FFFFFF" opacity="1.000000" stroke="none" 
	d="
M1370.373047,462.766205 
	C1370.895020,464.056732 1371.546631,465.248688 1371.272339,466.162628 
	C1368.740112,474.597260 1366.049683,482.984467 1363.400269,491.383820 
	C1362.830200,493.191528 1362.239136,494.992676 1361.314453,496.973572 
	C1358.751587,496.493256 1356.531982,495.836182 1353.862671,495.045990 
	C1354.043091,494.907928 1352.809937,495.958771 1352.742188,495.888275 
	C1349.760742,492.790070 1345.977905,490.025574 1344.199097,486.308197 
	C1341.410156,480.479279 1339.894287,474.025726 1338.000977,467.787598 
	C1335.709473,460.237000 1333.619141,452.625580 1331.378540,445.059174 
	C1329.957642,440.261108 1328.453247,435.486938 1326.929443,430.720306 
	C1324.641968,423.565033 1322.295044,416.428802 1319.992554,409.278351 
	C1318.758301,405.445221 1321.411133,401.112396 1325.320679,401.046844 
	C1334.147339,400.898804 1342.985229,400.788879 1351.804443,401.082825 
	C1356.759888,401.248047 1358.364624,405.946320 1358.533691,409.404999 
	C1358.872681,416.341583 1361.424194,422.561920 1362.942261,429.112122 
	C1365.514160,440.209137 1367.715820,451.391937 1370.373047,462.766205 
z"/>
<path fill="#47B7B9" opacity="1.000000" stroke="none" 
	d="
M1090.012329,557.133545 
	C1091.590210,564.292175 1093.172974,571.040222 1094.755615,577.788269 
	C1095.058960,577.797791 1095.362305,577.807312 1095.665527,577.816833 
	C1096.540283,573.760010 1097.344116,569.686340 1098.309082,565.651123 
	C1099.314697,561.446228 1100.264648,557.202515 1101.722900,553.150024 
	C1102.069458,552.187073 1104.319458,551.843567 1105.741699,551.354553 
	C1106.824219,550.982239 1107.982666,550.830627 1109.451904,550.504272 
	C1109.663818,553.277954 1111.729248,555.167053 1110.050293,559.634888 
	C1107.275513,567.018799 1106.987061,575.442261 1103.611450,583.010559 
	C1102.365356,585.804321 1102.743164,589.288269 1102.135376,592.409729 
	C1101.418823,596.090454 1099.138306,598.034119 1095.242065,598.024780 
	C1091.532715,598.015930 1088.984741,596.957153 1088.095215,592.796692 
	C1087.324219,589.190430 1085.693604,585.775085 1084.605347,582.225586 
	C1084.226562,580.990356 1084.333618,579.606079 1084.121704,577.176086 
	C1082.631592,579.118774 1081.007690,580.386475 1080.561890,581.983093 
	C1079.419312,586.075500 1079.287109,590.494446 1077.824951,594.439697 
	C1076.550049,597.879211 1072.957764,598.119324 1069.528320,598.042297 
	C1065.405029,597.949768 1065.048096,594.457825 1064.164917,591.959290 
	C1062.465332,587.151184 1061.446411,582.103638 1060.119629,577.162292 
	C1058.135376,569.772095 1055.994507,562.420349 1054.194824,554.985779 
	C1053.424194,551.802551 1055.826782,550.400208 1059.188599,551.466797 
	C1060.046387,551.738892 1061.263428,550.879089 1063.700073,550.092224 
	C1066.350708,559.043335 1069.046997,568.148682 1071.780029,577.377808 
	C1072.005981,576.924500 1072.775024,575.915100 1073.026245,574.790039 
	C1074.470459,568.325623 1075.571411,561.773926 1077.303711,555.391479 
	C1077.758667,553.715393 1079.863525,551.627441 1081.517578,551.305481 
	C1085.652588,550.500610 1089.307861,551.600891 1090.012329,557.133545 
z"/>
<path fill="#47B7B8" opacity="1.000000" stroke="none" 
	d="
M1280.029541,592.566895 
	C1280.028564,586.286804 1280.192993,580.455811 1279.938354,574.643250 
	C1279.851196,572.655396 1278.713013,570.713623 1277.989014,568.553894 
	C1272.667847,571.722107 1271.532959,575.615662 1271.966675,580.479797 
	C1272.319824,584.441711 1272.011841,588.460510 1272.045044,592.453674 
	C1272.073120,595.836731 1270.924438,598.143433 1267.093994,598.095215 
	C1263.537231,598.050476 1261.978149,596.073120 1261.970581,592.670715 
	C1261.958740,587.346130 1262.202148,582.006226 1261.860474,576.703552 
	C1261.694824,574.132568 1260.446533,571.631287 1259.693726,569.116394 
	C1254.466797,570.563171 1253.535522,573.535217 1253.790771,577.610596 
	C1254.091675,582.417175 1253.692871,587.264893 1253.916748,592.079895 
	C1254.091064,595.827454 1252.212402,597.636414 1248.893066,597.958557 
	C1244.897827,598.346130 1245.168213,595.245911 1244.977417,592.579285 
	C1244.391968,584.393494 1243.718750,576.213928 1243.142700,568.027466 
	C1242.973511,565.622559 1242.349121,562.953735 1246.205811,562.619324 
	C1250.836304,562.217834 1255.434814,561.248474 1260.064087,561.117310 
	C1262.479614,561.048950 1264.902710,562.440369 1267.376587,562.811951 
	C1268.936035,563.046204 1270.714111,562.946777 1272.188965,562.421204 
	C1277.838013,560.408142 1283.203247,559.817627 1287.550903,564.944885 
	C1288.684692,566.281921 1289.893799,568.090698 1289.945312,569.718445 
	C1290.182373,577.197632 1290.051147,584.689636 1289.987183,592.176514 
	C1289.965088,594.754150 1290.387207,597.771240 1286.487915,597.998474 
	C1282.962158,598.203918 1280.455200,596.923157 1280.029541,592.566895 
z"/>
<path fill="#4BB3B5" opacity="1.000000" stroke="none" 
	d="
M1342.127197,570.356445 
	C1340.865112,571.450256 1339.205322,572.246338 1339.142212,573.153442 
	C1338.854248,577.294189 1338.642944,581.518250 1339.215698,585.598572 
	C1339.415894,587.025940 1341.910889,588.167175 1343.416016,589.366272 
	C1345.228760,590.810669 1347.103271,592.177612 1348.951050,593.578064 
	C1347.613037,595.041565 1346.545166,597.225769 1344.890869,597.845947 
	C1336.899048,600.842224 1331.304932,596.400024 1331.915649,588.212646 
	C1332.286255,583.247314 1332.015869,578.231567 1331.952271,573.239502 
	C1331.943237,572.532776 1331.619019,571.720276 1331.185181,571.151428 
	C1330.243164,569.915771 1328.930176,568.929871 1328.140747,567.617920 
	C1326.664917,565.165344 1332.764160,553.489929 1335.596436,553.106445 
	C1338.926147,552.655518 1340.071655,554.987183 1339.188599,560.288269 
	C1341.681152,561.101562 1344.175537,561.915466 1346.669800,562.729309 
	C1352.393921,562.813660 1353.095337,557.790894 1354.094482,553.223755 
	C1361.490967,553.068726 1362.852661,554.531433 1361.678955,558.884216 
	C1364.232910,561.691467 1367.832031,564.004944 1367.581055,565.771362 
	C1367.236938,568.192505 1363.971069,570.198425 1361.018677,573.400085 
	C1361.018677,576.193054 1360.726318,580.709290 1361.168701,585.152344 
	C1361.335571,586.828247 1362.938110,589.352539 1364.346191,589.718201 
	C1367.849243,590.627686 1370.426636,592.428345 1368.497437,595.619873 
	C1367.326660,597.556824 1363.359375,598.952515 1360.841553,598.695923 
	C1354.880737,598.088501 1352.217773,594.261292 1352.131470,587.973999 
	C1352.076660,583.980408 1352.481201,579.942200 1352.003418,576.006165 
	C1351.673828,573.291748 1350.689697,570.274292 1348.957275,568.310242 
	C1348.307983,567.573975 1344.715332,569.433655 1342.127197,570.356445 
z"/>
<path fill="#47B7B9" opacity="1.000000" stroke="none" 
	d="
M1167.914429,567.038147 
	C1169.935547,565.651855 1171.849609,564.058167 1174.010742,562.942993 
	C1175.830688,562.003845 1177.899536,561.368713 1179.928345,561.061707 
	C1182.012085,560.746277 1184.180542,560.991699 1187.029663,560.991699 
	C1187.029663,558.501709 1187.021729,556.269958 1187.031250,554.038330 
	C1187.057617,547.792419 1187.728394,547.128967 1194.594849,547.471008 
	C1195.370239,549.888611 1195.933960,551.819031 1195.950806,553.754211 
	C1196.040405,564.043884 1195.920410,574.335815 1196.075317,584.623962 
	C1196.097290,586.083862 1197.225708,587.527161 1197.842041,588.978088 
	C1197.406006,591.336426 1199.863159,593.862000 1196.693359,596.208496 
	C1194.724731,597.665833 1194.219849,598.368408 1191.626709,596.845154 
	C1189.818481,595.782898 1186.275146,597.519287 1183.554199,598.195557 
	C1176.196533,600.024292 1167.674561,594.348389 1167.173218,586.904297 
	C1166.814575,581.580505 1167.007202,576.219543 1166.982910,570.442993 
	C1167.011719,570.010803 1166.990967,570.057678 1167.338379,569.873047 
	C1167.793457,568.773438 1167.901245,567.858459 1167.986084,566.967957 
	C1167.963135,566.992371 1167.914429,567.038147 1167.914429,567.038147 
M1180.933228,570.499573 
	C1174.681885,574.670471 1175.243164,585.246887 1181.839966,589.791199 
	C1186.924316,588.867432 1187.527100,585.411438 1187.076538,581.143982 
	C1186.817017,578.686646 1187.171753,576.169373 1186.992920,573.697632 
	C1186.746582,570.292297 1184.718872,569.179993 1180.933228,570.499573 
z"/>
<path fill="#49B5B6" opacity="1.000000" stroke="none" 
	d="
M1323.868408,580.995850 
	C1324.232666,585.568176 1324.723511,589.644043 1324.875366,593.732544 
	C1324.915405,594.810852 1324.167969,596.531921 1323.324463,596.895203 
	C1321.820557,597.542725 1319.968384,597.506287 1318.260498,597.516174 
	C1316.956665,597.523743 1315.362305,596.581238 1314.394653,597.062134 
	C1309.847046,599.321960 1305.244751,599.591187 1300.684082,597.672241 
	C1296.681885,595.988403 1294.055298,593.158569 1293.916626,588.302612 
	C1293.768677,583.116760 1294.705200,578.797363 1299.944824,576.507385 
	C1300.958252,576.064392 1302.203613,575.837280 1302.928467,575.102600 
	C1306.332031,571.652283 1309.744141,572.577881 1314.281494,574.273132 
	C1313.478760,572.741821 1313.035156,570.639771 1311.769775,569.843750 
	C1310.564819,569.085754 1308.128418,569.059937 1306.878052,569.800537 
	C1299.483521,574.180237 1299.546753,574.286926 1295.281250,567.102417 
	C1300.395874,560.181519 1307.281372,559.971680 1314.771240,561.909607 
	C1321.620605,563.681763 1323.922607,566.578979 1323.873047,573.506165 
	C1323.856445,575.838684 1323.869141,578.171448 1323.868408,580.995850 
M1313.609009,586.958557 
	C1313.759399,585.213867 1313.909912,583.469116 1313.996460,582.464783 
	C1311.875977,582.634033 1309.896973,582.402954 1308.259766,583.044495 
	C1306.922974,583.568237 1305.699341,584.976135 1304.993164,586.295776 
	C1304.552856,587.118774 1305.167480,588.506287 1305.308594,589.640442 
	C1306.624634,589.214661 1307.927490,588.740967 1309.260376,588.377075 
	C1310.495728,588.039795 1311.763062,587.820007 1313.609009,586.958557 
z"/>
<path fill="#47B7B9" opacity="1.000000" stroke="none" 
	d="
M1393.470337,562.098511 
	C1397.523926,565.289062 1399.924805,568.263245 1400.754761,573.849121 
	C1401.422119,578.340759 1401.884888,580.734802 1397.986328,582.835876 
	C1396.686768,583.536194 1395.072388,583.909241 1393.586304,583.958313 
	C1389.215942,584.102905 1384.837769,584.009949 1379.762451,584.009949 
	C1384.420410,590.831543 1385.163330,590.917786 1391.717041,588.342896 
	C1393.652100,587.582581 1396.099731,587.368408 1398.101807,587.825745 
	C1399.275757,588.093811 1401.107788,590.771973 1400.791870,591.345520 
	C1399.489624,593.708740 1397.722656,597.176758 1395.681519,597.509705 
	C1390.158691,598.410645 1384.278320,598.641541 1378.806152,597.657410 
	C1376.265503,597.200500 1373.667969,593.649414 1372.272583,590.903381 
	C1368.717651,583.907654 1368.978638,576.659851 1371.753784,569.218872 
	C1374.791260,561.074768 1386.609619,559.569519 1393.470337,562.098511 
M1384.103760,569.633789 
	C1382.665649,571.839600 1381.227539,574.045471 1379.220459,577.123901 
	C1384.449463,576.190552 1389.540161,579.476624 1392.346558,573.484436 
	C1389.806763,572.044922 1387.224243,570.581177 1384.103760,569.633789 
z"/>
<path fill="#48B6B8" opacity="1.000000" stroke="none" 
	d="
M1142.968994,577.679688 
	C1142.673340,581.337891 1142.757202,584.649292 1142.063110,587.788757 
	C1140.399780,595.311523 1131.632202,600.328064 1124.182373,598.691895 
	C1117.206299,597.159790 1112.935059,593.213379 1110.729004,586.398621 
	C1108.082520,578.223572 1111.315308,566.426819 1118.220581,563.135376 
	C1130.551025,557.257874 1141.867188,562.559753 1142.968994,577.679688 
M1128.483765,569.988892 
	C1127.076050,570.081482 1125.335693,569.673279 1124.316284,570.350464 
	C1118.956665,573.910889 1120.010254,584.221008 1122.750244,587.705811 
	C1123.791748,589.030457 1126.755493,590.017456 1128.329834,589.523376 
	C1132.561646,588.195374 1133.938721,583.870239 1133.598022,580.263794 
	C1133.278809,576.885193 1134.301025,571.950256 1128.483765,569.988892 
z"/>
<path fill="#49B5B7" opacity="1.000000" stroke="none" 
	d="
M1201.878906,589.188416 
	C1204.731934,585.936646 1207.559570,588.467834 1210.255859,588.511719 
	C1212.181763,588.543091 1214.114502,588.153931 1216.044189,587.952393 
	C1216.047119,587.440369 1216.049927,586.928406 1216.052856,586.416443 
	C1212.600220,584.614929 1208.721313,583.331726 1205.777344,580.911499 
	C1197.942383,574.470520 1199.318237,565.649536 1208.809937,561.824219 
	C1213.747925,559.834106 1219.089233,560.049805 1223.217773,564.183533 
	C1224.034912,565.001709 1224.290771,567.694092 1223.617432,568.419250 
	C1222.118286,570.033997 1220.680298,573.924744 1217.544800,570.924866 
	C1214.556030,568.065369 1212.818237,568.812256 1211.133423,571.853577 
	C1214.474243,573.712219 1217.915283,575.267395 1220.950317,577.400269 
	C1225.421265,580.542114 1228.046143,586.897644 1225.823730,591.049072 
	C1223.536621,595.321411 1219.649170,598.729431 1214.286499,598.913086 
	C1209.659790,599.071472 1204.645630,599.449341 1202.272583,594.040100 
	C1201.652222,592.626343 1201.744385,590.900146 1201.878906,589.188416 
z"/>
<path fill="#49B5B6" opacity="1.000000" stroke="none" 
	d="
M1147.146973,572.004822 
	C1147.125610,571.013245 1147.084473,570.021606 1147.086060,569.030090 
	C1147.096802,562.286499 1147.096802,562.318604 1153.777588,562.896606 
	C1154.868530,562.990967 1156.110596,562.917419 1157.088379,562.483459 
	C1163.088257,559.820312 1164.843628,560.385010 1167.996460,566.657715 
	C1167.914429,567.038147 1167.963135,566.992371 1167.645508,567.154663 
	C1167.215454,568.230530 1167.103149,569.144104 1166.990967,570.057678 
	C1166.990967,570.057678 1167.011719,570.010803 1167.035400,570.001831 
	C1164.777344,570.341675 1162.236572,570.191406 1160.296509,571.198608 
	C1158.770020,571.991028 1157.162964,574.142883 1157.023926,575.810242 
	C1156.600220,580.896118 1156.876465,586.039673 1156.866333,591.160767 
	C1156.853638,597.643494 1156.277588,598.178650 1149.266113,597.443054 
	C1148.558716,592.559509 1148.307373,588.118408 1148.009888,583.680420 
	C1147.749023,579.786743 1147.436646,575.896545 1147.146973,572.004822 
z"/>
<path fill="#46B9BB" opacity="1.000000" stroke="none" 
	d="
M1413.075806,596.037598 
	C1411.049194,596.896851 1409.022583,597.756165 1406.605225,598.781189 
	C1405.913818,586.225891 1405.292480,574.942627 1404.607544,562.504028 
	C1406.747070,562.760742 1409.359253,563.288879 1411.972168,563.293945 
	C1413.216431,563.296387 1414.474487,562.329468 1415.705200,561.756165 
	C1418.773193,560.327209 1421.554810,560.374023 1423.920410,563.153076 
	C1426.360840,566.020142 1424.758667,568.424500 1422.947754,570.641418 
	C1422.399292,571.312927 1421.144043,571.465759 1420.177002,571.723022 
	C1418.653076,572.128479 1417.099121,572.421387 1414.837402,572.980713 
	C1413.744873,574.351440 1413.065430,575.499451 1413.051025,576.655762 
	C1412.970337,583.115295 1413.050537,589.576782 1413.075806,596.037598 
z"/>
<path fill="#00FFFF" opacity="1.000000" stroke="none" 
	d="
M1197.913086,588.514526 
	C1197.225708,587.527161 1196.097290,586.083862 1196.075317,584.623962 
	C1195.920410,574.335815 1196.040405,564.043884 1195.950806,553.754211 
	C1195.933960,551.819031 1195.370239,549.888611 1195.004150,547.546997 
	C1195.966309,549.307983 1197.806519,551.457214 1197.861938,553.651611 
	C1198.152344,565.111755 1197.989502,576.583313 1197.913086,588.514526 
z"/>
<path fill="#33CCCC" opacity="1.000000" stroke="none" 
	d="
M1416.458740,401.130066 
	C1416.089600,401.817505 1415.277100,402.904205 1414.449463,402.915894 
	C1406.254395,403.031708 1398.056763,402.987183 1389.860352,402.916107 
	C1389.332275,402.911499 1388.809326,402.312653 1388.190674,401.611450 
	C1397.400879,401.165222 1406.704590,401.097809 1416.458740,401.130066 
z"/>
<path fill="#00FFFF" opacity="1.000000" stroke="none" 
	d="
M1413.507324,596.004517 
	C1413.050537,589.576782 1412.970337,583.115295 1413.051025,576.655762 
	C1413.065430,575.499451 1413.744873,574.351440 1414.524780,573.183228 
	C1414.954956,579.643616 1415.028442,586.120911 1414.951660,592.596375 
	C1414.938354,593.725220 1414.292480,594.846619 1413.507324,596.004517 
z"/>
<path fill="#00FFFF" opacity="1.000000" stroke="none" 
	d="
M1147.080811,572.471313 
	C1147.436646,575.896545 1147.749023,579.786743 1148.009888,583.680420 
	C1148.307373,588.118408 1148.558716,592.559509 1148.833618,597.406372 
	C1148.224731,596.307556 1147.125977,594.815125 1147.083862,593.293335 
	C1146.895752,586.512756 1147.009888,579.723755 1147.080811,572.471313 
z"/>
<path fill="#223C6B" opacity="1.000000" stroke="none" 
	d="
M305.256348,445.750397 
	C302.808472,441.687958 300.556610,437.931885 298.304779,434.175842 
	C298.544128,433.614349 298.783478,433.052856 299.022827,432.491364 
	C304.069183,432.491364 309.216888,433.137482 314.142151,432.365143 
	C326.795807,430.380768 335.323639,433.765350 341.206726,446.351105 
	C347.291351,459.368042 355.966492,471.173035 363.486969,483.521240 
	C364.409210,485.035553 365.199036,486.630493 366.099121,488.277527 
	C365.155975,488.895538 364.621887,489.549103 364.080750,489.554993 
	C354.441132,489.659637 344.792145,489.902069 335.168152,489.526550 
	C333.459747,489.459930 331.432281,487.024811 330.269043,485.221069 
	C321.893127,472.233185 313.702057,459.126099 305.256348,445.750397 
z"/>
<path fill="#4EBDCA" opacity="1.000000" stroke="none" 
	d="
M364.722748,377.588257 
	C354.241699,394.242554 344.010284,410.610626 333.561249,426.838562 
	C332.459381,428.549866 330.117798,430.460022 328.282166,430.532806 
	C319.308350,430.888763 310.310822,430.673584 301.322418,430.587921 
	C300.573486,430.580780 299.829651,430.035309 298.491364,429.505615 
	C299.397949,427.549927 300.043152,425.725922 301.025391,424.106384 
	C310.429382,408.600739 319.985565,393.186340 329.260712,377.604462 
	C331.310089,374.161560 333.611572,372.771484 337.635254,373.018524 
	C345.764648,373.517639 353.923309,373.541321 362.069885,373.759979 
	C364.381470,373.822021 366.911713,373.703064 364.722748,377.588257 
z"/>
<path fill="#000000" opacity="1.000000" stroke="none" 
	d="
M1000.009277,428.000000 
	C1002.379150,428.000000 1004.311157,428.000000 1006.831360,428.000000 
	C1006.758728,427.897369 1007.135376,428.557648 1007.632141,429.109863 
	C1010.318542,432.096771 1011.508728,435.955017 1008.806519,438.778198 
	C1006.785400,440.889832 1002.865234,442.223145 999.844299,442.131744 
	C992.552612,441.911072 990.320312,438.706177 992.111755,431.695679 
	C993.006775,428.193024 996.338318,427.755432 1000.009277,428.000000 
z"/>
<path fill="#000000" opacity="1.000000" stroke="none" 
	d="
M1004.754211,497.499695 
	C1005.560303,498.219910 1006.147156,498.605621 1006.728516,498.999329 
	C1007.814697,499.734772 1009.877502,500.616913 1009.794983,501.185944 
	C1009.564941,502.772949 1008.544067,505.466675 1007.660278,505.537476 
	C1002.299866,505.966827 996.876648,505.986420 991.512024,505.608307 
	C990.639282,505.546814 989.418945,502.859467 989.315796,501.321625 
	C989.182617,499.333496 990.010803,497.280945 990.575317,494.521820 
	C993.842285,495.598633 997.057068,496.834015 1000.373474,497.661865 
	C1001.639832,497.977966 1003.139282,497.360687 1004.754211,497.499695 
z"/>
<path fill="#000000" opacity="1.000000" stroke="none" 
	d="
M891.990112,433.520386 
	C892.768555,428.823822 893.586487,424.562592 894.282227,420.281464 
	C894.526855,418.776611 894.471680,417.222992 894.553345,415.691650 
	C894.113770,415.664886 893.674255,415.638123 893.234741,415.611389 
	C894.406921,414.307861 895.579102,413.004364 896.530090,411.946838 
	C897.075562,414.493835 897.709351,417.453125 898.343201,420.412445 
	C898.466370,420.361481 898.589539,420.310547 898.712708,420.259613 
	C898.712708,421.946686 898.429260,423.692841 898.766296,425.309662 
	C899.744812,430.004059 900.808105,434.694855 902.161133,439.291992 
	C903.021912,442.216553 901.941162,443.035309 899.302734,443.007050 
	C896.331238,442.975250 893.359131,442.999725 889.693787,442.999725 
	C890.521179,439.725952 891.251343,436.836914 891.990112,433.520386 
z"/>
<path fill="#000000" opacity="1.000000" stroke="none" 
	d="
M759.000000,440.063293 
	C759.000000,450.194977 759.000000,459.834747 759.000000,470.000000 
	C756.476440,470.000000 754.207642,470.021271 751.939331,469.995422 
	C747.648071,469.946533 745.013184,468.848724 743.727783,463.711273 
	C741.227600,453.719330 741.840820,444.047699 744.055420,434.284760 
	C744.810364,430.957001 750.057312,429.350403 756.028564,429.953522 
	C760.158936,430.370697 758.756348,433.342377 758.976257,435.573792 
	C759.106323,436.894287 759.000000,438.238098 759.000000,440.063293 
z"/>
<path fill="#000000" opacity="1.000000" stroke="none" 
	d="
M1103.665283,431.178101 
	C1105.196289,434.049316 1106.427368,436.654663 1108.007568,439.999390 
	C1101.489380,439.999390 1096.340576,440.032074 1091.192383,439.984894 
	C1088.791870,439.962921 1087.589600,439.699890 1088.744507,436.426422 
	C1091.347046,429.048737 1094.154175,427.743744 1103.665283,431.178101 
z"/>
<path fill="#000000" opacity="1.000000" stroke="none" 
	d="
M581.000000,449.077454 
	C580.589722,446.004303 579.457703,443.259491 579.954712,440.850922 
	C580.554871,437.942719 581.895630,434.452789 584.103210,432.821350 
	C586.228699,431.250610 589.975830,431.084564 592.801086,431.556000 
	C594.412659,431.824982 596.725647,434.552734 596.800293,436.257538 
	C597.198547,445.353394 597.179138,454.481567 596.900879,463.586243 
	C596.784973,467.380249 592.677856,470.540863 589.016418,469.922241 
	C585.134155,469.266357 582.039429,467.514252 581.946960,462.711823 
	C581.862427,458.321686 581.333252,453.940094 581.000000,449.077454 
z"/>
<path fill="#000000" opacity="1.000000" stroke="none" 
	d="
M1181.220703,570.231628 
	C1184.718872,569.179993 1186.746582,570.292297 1186.992920,573.697632 
	C1187.171753,576.169373 1186.817017,578.686646 1187.076538,581.143982 
	C1187.527100,585.411438 1186.924316,588.867432 1181.839966,589.791199 
	C1175.243164,585.246887 1174.681885,574.670471 1181.220703,570.231628 
z"/>
<path fill="#000000" opacity="1.000000" stroke="none" 
	d="
M1167.338379,569.873047 
	C1167.103149,569.144104 1167.215454,568.230530 1167.668457,567.130249 
	C1167.901245,567.858459 1167.793457,568.773438 1167.338379,569.873047 
z"/>
<path fill="#000000" opacity="1.000000" stroke="none" 
	d="
M1313.312744,587.253540 
	C1311.763062,587.820007 1310.495728,588.039795 1309.260376,588.377075 
	C1307.927490,588.740967 1306.624634,589.214661 1305.308594,589.640442 
	C1305.167480,588.506287 1304.552856,587.118774 1304.993164,586.295776 
	C1305.699341,584.976135 1306.922974,583.568237 1308.259766,583.044495 
	C1309.896973,582.402954 1311.875977,582.634033 1313.996460,582.464783 
	C1313.909912,583.469116 1313.759399,585.213867 1313.312744,587.253540 
z"/>
<path fill="#000000" opacity="1.000000" stroke="none" 
	d="
M1384.372803,569.375610 
	C1387.224243,570.581177 1389.806763,572.044922 1392.346558,573.484436 
	C1389.540161,579.476624 1384.449463,576.190552 1379.220459,577.123901 
	C1381.227539,574.045471 1382.665649,571.839600 1384.372803,569.375610 
z"/>
<path fill="#000000" opacity="1.000000" stroke="none" 
	d="
M1128.772827,570.243286 
	C1134.301025,571.950256 1133.278809,576.885193 1133.598022,580.263794 
	C1133.938721,583.870239 1132.561646,588.195374 1128.329834,589.523376 
	C1126.755493,590.017456 1123.791748,589.030457 1122.750244,587.705811 
	C1120.010254,584.221008 1118.956665,573.910889 1124.316284,570.350464 
	C1125.335693,569.673279 1127.076050,570.081482 1128.772827,570.243286 
z"/>
</svg>